<svg xmlns="http://www.w3.org/2000/svg" width="23" height="22" viewBox="0 0 23 22" fill="none">
  <path d="M18.1529 1.58732L13.6085 8.20587C13.2943 8.6566 13.8986 9.20222 14.3337 8.82266L18.8056 5.00335C18.9264 4.90846 19.0957 4.97963 19.0957 5.14568V17.0781C19.0957 17.2441 18.8781 17.3153 18.7814 17.1967L5.24485 1.30266C4.80975 0.780763 4.18127 0.496094 3.48027 0.496094H2.99682C1.73985 0.496094 0.700439 1.51616 0.700439 2.77344V19.5689C0.700439 20.8262 1.73985 21.8463 3.02099 21.8463C3.81868 21.8463 4.56803 21.443 5.00313 20.755L9.54755 14.1365C9.86179 13.6858 9.25748 13.1401 8.82237 13.5197L4.35048 17.3153C4.22961 17.4102 4.06041 17.339 4.06041 17.1729V5.2643C4.06041 5.09824 4.27796 5.02707 4.37465 5.14568L17.9112 21.0397C18.3463 21.5616 18.999 21.8463 19.6758 21.8463H20.1592C21.4404 21.8463 22.4798 20.8262 22.4798 19.5689V2.77344C22.4556 1.51616 21.4162 0.496094 20.1351 0.496094C19.3374 0.496094 18.588 0.899375 18.1529 1.58732Z" fill="white" />
</svg>