<svg xmlns="http://www.w3.org/2000/svg" width="153" height="40" viewBox="0 0 153 40" fill="none">
  <g clipPath="url(#clip0_12074_140)">
    <path d="M76.5914 8.3006V31.4804C76.5914 31.657 76.4583 31.8336 76.2363 31.8336H73.795C72.6853 31.8336 71.62 31.2597 70.9985 30.3325L59.9903 13.4222L60.3454 21.8553V31.5246C60.3454 31.7012 60.2122 31.8778 59.9903 31.8778H56.7943C56.6168 31.8778 56.4392 31.7453 56.4392 31.5246V8.3006C56.4392 8.124 56.5724 7.94739 56.7943 7.94739H59.1913C60.301 7.94739 61.3663 8.52136 61.9877 9.44856L72.996 26.3146L72.6409 17.8816V8.3006C72.6409 8.124 72.7741 7.94739 72.996 7.94739H76.1919C76.4583 7.94739 76.5914 8.07984 76.5914 8.3006Z" fill="black" />
    <path d="M109.35 31.7895H105.976C105.754 31.7895 105.577 31.5687 105.666 31.348L114.632 8.25645C114.721 8.07984 114.898 7.94739 115.076 7.94739H119.337C119.559 7.94739 119.737 8.07984 119.781 8.25645L128.792 31.348C128.881 31.5687 128.703 31.7895 128.481 31.7895H125.108C124.975 31.7895 124.841 31.7012 124.797 31.5687L117.562 12.5834C117.473 12.3184 117.029 12.3184 116.94 12.5834L109.705 31.5687C109.616 31.7012 109.483 31.7895 109.35 31.7895Z" fill="black" />
    <path d="M152.318 31.2597L145.571 22.6942C149.388 21.9877 151.607 19.4269 151.607 15.4974C151.607 10.9939 148.678 7.94739 143.44 7.94739H134.03C133.763 7.94739 133.541 8.16815 133.541 8.43306C133.541 10.1991 134.962 11.612 136.737 11.612H143.085C146.236 11.612 147.746 13.2015 147.746 15.5415C147.746 17.8816 146.281 19.4711 143.085 19.4711H134.118C133.852 19.4711 133.63 19.6918 133.63 19.9567V31.4363C133.63 31.6129 133.763 31.7895 133.985 31.7895H137.181C137.359 31.7895 137.536 31.657 137.536 31.4363V22.9149H141.221L147.08 30.5091C147.701 31.348 148.678 31.7895 149.743 31.7895H152.184C152.362 31.7895 152.495 31.4804 152.318 31.2597Z" fill="black" />
    <path d="M99.2293 7.94739H84.3593C84.093 7.94739 83.9154 8.124 83.9154 8.38891C83.9154 10.155 85.3802 11.612 87.1557 11.612H99.2293C99.4069 11.612 99.5844 11.4796 99.5844 11.2588V8.25645C99.54 8.07984 99.4069 7.94739 99.2293 7.94739ZM99.2293 28.1249H88.1323C87.9547 28.1249 87.7772 27.9924 87.7772 27.7717V21.8111C87.7772 21.6345 87.9103 21.4579 88.1323 21.4579H98.3859C98.5635 21.4579 98.741 21.3255 98.741 21.1047V18.1024C98.741 17.9258 98.6079 17.7491 98.3859 17.7491H84.4037C84.1373 17.7491 83.9154 17.9699 83.9154 18.2348V31.2597C83.9154 31.5246 84.1373 31.7453 84.4037 31.7453H99.2293C99.4069 31.7453 99.5844 31.6129 99.5844 31.3921V28.3898C99.54 28.2573 99.4069 28.1249 99.2293 28.1249Z" fill="black" />
    <path d="M32.6471 2.03099L24.3022 14.3494C23.7251 15.1883 24.8348 16.2038 25.6338 15.4974L33.8456 8.38889C34.0675 8.21228 34.3783 8.34474 34.3783 8.6538V30.8623C34.3783 31.1713 33.9788 31.3038 33.8012 31.083L8.94385 1.50117C8.14486 0.529825 6.99077 0 5.70351 0H4.81575C2.50757 0 0.598877 1.89854 0.598877 4.2386V35.4982C0.598877 37.8383 2.50757 39.7368 4.86014 39.7368C6.32495 39.7368 7.70098 38.9863 8.49997 37.7058L16.8449 25.3874C17.422 24.5485 16.3123 23.533 15.5133 24.2395L7.30149 31.3038C7.07955 31.4804 6.76883 31.348 6.76883 31.0389V8.87456C6.76883 8.5655 7.16832 8.43304 7.34588 8.6538L32.2032 38.2357C33.0022 39.207 34.2007 39.7368 35.4436 39.7368H36.3313C38.6839 39.7368 40.5926 37.8383 40.5926 35.4982V4.2386C40.5482 1.89854 38.6395 0 36.287 0C34.8221 0 33.4461 0.750585 32.6471 2.03099Z" fill="black" />
  </g>
  <defs>
    <clipPath id="clip0_12074_140">
      <rect width="151.807" height="39.7368" fill="white" transform="translate(0.598877)" />
    </clipPath>
  </defs>
</svg>